# xmcd
#
# Track frame offsets:
#	150
#	12685
#	25727
#	43355
#	59152
#	74240
#	86225
#	101500
#	113412
#	128522
#	144700
#	162367
#	176720
#	191497
#	205930
#	220155
#	235942
#	248055
#	266350
#	286605
#	307610
#	319190
#	321575
#
# Disc length: 4347
#
# Revision: 1
# Processed by: cddbd v1.5.1PL0 Copyright (c) Steve Scherf et al.
# Submitted via: VisiTrax 2.9.5.180 - For more info visit www.synapsa.com
# Normalized: r0:DSETVAR1
#
DISCID=5910f917
DTITLE=Various Artist - CDX 147 October
DYEAR=1996
DGENRE=
TTITLE0=Jo Dee Messina - Do you wanna make something of it
TTITLE1=B B Watson - Foolproof
TTITLE2=Shania Twain - God bless the child
TTITLE3=Paul Brandt - I meant to do that
TTITLE4=Tracy Lawrence - Is that a tear
TTITLE5=Alan Jackson - Little bitty
TTITLE6=Toby Keith - Me too
TTITLE7=K T Oslin - My baby came back
TTITLE8=Sammy Kershaw - Politics, religion and her
TTITLE9=Vince Gill - Pretty little Adriana
TTITLE10=T Herndon - She wants to be wanted again
TTITLE11=Steve Kolander - Still crazy 'bout you
TTITLE12=Deryl Dodd - That's how I got to Memphis
TTITLE13=Michelle Wright - The answer is yes
TTITLE14=Collin Raye - What if Jesus comes back like that
TTITLE15=Travis Tritt - Where corn don't grow
TTITLE16=Steven Craig Harding - Armed and dangerous
TTITLE17=Mart Stuart - You can't stop love
TTITLE18=Marty Brown - You can't wrap your arms around a memory
TTITLE19=Paul Brandt - I meant to do that
TTITLE20=Hank Williams - My bucket's got a hole in it
TTITLE21=Various Artist - PSA
TTITLE22=Various Artist - PSA
EXTD=
EXTT0=
EXTT1=
EXTT2=
EXTT3=
EXTT4=
EXTT5=
EXTT6=
EXTT7=
EXTT8=
EXTT9=
EXTT10=
EXTT11=
EXTT12=
EXTT13=
EXTT14=
EXTT15=
EXTT16=
EXTT17=
EXTT18=
EXTT19=
EXTT20=
EXTT21=
EXTT22=
PLAYORDER=
